<?xml version="1.0" encoding="utf-8" standalone="no"?>
<!DOCTYPE svg PUBLIC "-//W3C//DTD SVG 1.1//EN"
  "http://www.w3.org/Graphics/SVG/1.1/DTD/svg11.dtd">
<svg xmlns:xlink="http://www.w3.org/1999/xlink" width="1784.73375pt" height="797.115294pt" viewBox="0 0 1784.73375 797.115294" xmlns="http://www.w3.org/2000/svg" version="1.1">
 <metadata>
  <rdf:RDF xmlns:dc="http://purl.org/dc/elements/1.1/" xmlns:cc="http://creativecommons.org/ns#" xmlns:rdf="http://www.w3.org/1999/02/22-rdf-syntax-ns#">
   <cc:Work>
    <dc:type rdf:resource="http://purl.org/dc/dcmitype/StillImage"/>
    <dc:date>2023-11-07T14:26:53.760770</dc:date>
    <dc:format>image/svg+xml</dc:format>
    <dc:creator>
     <cc:Agent>
      <dc:title>Matplotlib v3.7.1, https://matplotlib.org/</dc:title>
     </cc:Agent>
    </dc:creator>
   </cc:Work>
  </rdf:RDF>
 </metadata>
 <defs>
  <style type="text/css">*{stroke-linejoin: round; stroke-linecap: butt}</style>
 </defs>
 <g id="figure_1">
  <g id="patch_1">
   <path d="M 0 797.115294 
L 1784.73375 797.115294 
L 1784.73375 0 
L 0 0 
z
" style="fill: #ffffff"/>
  </g>
  <g id="axes_1">
   <g id="patch_2">
    <path d="M 103.53375 672.48 
L 1777.53375 672.48 
L 1777.53375 7.2 
L 103.53375 7.2 
z
" style="fill: #eaeaf2"/>
   </g>
   <g id="matplotlib.axis_1">
    <g id="xtick_1">
     <g id="text_1">
      <!-- ConvTCN -->
      <g style="fill: #262626" transform="translate(458.077022 773.941566) rotate(-25) scale(0.33 -0.33)">
       <defs>
        <path id="DejaVuSans-43" d="M 4122 4306 
L 4122 3641 
Q 3803 3938 3442 4084 
Q 3081 4231 2675 4231 
Q 1875 4231 1450 3742 
Q 1025 3253 1025 2328 
Q 1025 1406 1450 917 
Q 1875 428 2675 428 
Q 3081 428 3442 575 
Q 3803 722 4122 1019 
L 4122 359 
Q 3791 134 3420 21 
Q 3050 -91 2638 -91 
Q 1578 -91 968 557 
Q 359 1206 359 2328 
Q 359 3453 968 4101 
Q 1578 4750 2638 4750 
Q 3056 4750 3426 4639 
Q 3797 4528 4122 4306 
z
" transform="scale(0.015625)"/>
        <path id="DejaVuSans-6f" d="M 1959 3097 
Q 1497 3097 1228 2736 
Q 959 2375 959 1747 
Q 959 1119 1226 758 
Q 1494 397 1959 397 
Q 2419 397 2687 759 
Q 2956 1122 2956 1747 
Q 2956 2369 2687 2733 
Q 2419 3097 1959 3097 
z
M 1959 3584 
Q 2709 3584 3137 3096 
Q 3566 2609 3566 1747 
Q 3566 888 3137 398 
Q 2709 -91 1959 -91 
Q 1206 -91 779 398 
Q 353 888 353 1747 
Q 353 2609 779 3096 
Q 1206 3584 1959 3584 
z
" transform="scale(0.015625)"/>
        <path id="DejaVuSans-6e" d="M 3513 2113 
L 3513 0 
L 2938 0 
L 2938 2094 
Q 2938 2591 2744 2837 
Q 2550 3084 2163 3084 
Q 1697 3084 1428 2787 
Q 1159 2491 1159 1978 
L 1159 0 
L 581 0 
L 581 3500 
L 1159 3500 
L 1159 2956 
Q 1366 3272 1645 3428 
Q 1925 3584 2291 3584 
Q 2894 3584 3203 3211 
Q 3513 2838 3513 2113 
z
" transform="scale(0.015625)"/>
        <path id="DejaVuSans-76" d="M 191 3500 
L 800 3500 
L 1894 563 
L 2988 3500 
L 3597 3500 
L 2284 0 
L 1503 0 
L 191 3500 
z
" transform="scale(0.015625)"/>
        <path id="DejaVuSans-54" d="M -19 4666 
L 3928 4666 
L 3928 4134 
L 2272 4134 
L 2272 0 
L 1638 0 
L 1638 4134 
L -19 4134 
L -19 4666 
z
" transform="scale(0.015625)"/>
        <path id="DejaVuSans-4e" d="M 628 4666 
L 1478 4666 
L 3547 763 
L 3547 4666 
L 4159 4666 
L 4159 0 
L 3309 0 
L 1241 3903 
L 1241 0 
L 628 0 
L 628 4666 
z
" transform="scale(0.015625)"/>
       </defs>
       <use xlink:href="#DejaVuSans-43"/>
       <use xlink:href="#DejaVuSans-6f" x="69.824219"/>
       <use xlink:href="#DejaVuSans-6e" x="131.005859"/>
       <use xlink:href="#DejaVuSans-76" x="194.384766"/>
       <use xlink:href="#DejaVuSans-54" x="253.564453"/>
       <use xlink:href="#DejaVuSans-43" x="308.773438"/>
       <use xlink:href="#DejaVuSans-4e" x="378.597656"/>
      </g>
     </g>
    </g>
    <g id="xtick_2">
     <g id="text_2">
      <!-- TweetyNet -->
      <g style="fill: #262626" transform="translate(1284.618514 783.695332) rotate(-25) scale(0.33 -0.33)">
       <defs>
        <path id="DejaVuSans-77" d="M 269 3500 
L 844 3500 
L 1563 769 
L 2278 3500 
L 2956 3500 
L 3675 769 
L 4391 3500 
L 4966 3500 
L 4050 0 
L 3372 0 
L 2619 2869 
L 1863 0 
L 1184 0 
L 269 3500 
z
" transform="scale(0.015625)"/>
        <path id="DejaVuSans-65" d="M 3597 1894 
L 3597 1613 
L 953 1613 
Q 991 1019 1311 708 
Q 1631 397 2203 397 
Q 2534 397 2845 478 
Q 3156 559 3463 722 
L 3463 178 
Q 3153 47 2828 -22 
Q 2503 -91 2169 -91 
Q 1331 -91 842 396 
Q 353 884 353 1716 
Q 353 2575 817 3079 
Q 1281 3584 2069 3584 
Q 2775 3584 3186 3129 
Q 3597 2675 3597 1894 
z
M 3022 2063 
Q 3016 2534 2758 2815 
Q 2500 3097 2075 3097 
Q 1594 3097 1305 2825 
Q 1016 2553 972 2059 
L 3022 2063 
z
" transform="scale(0.015625)"/>
        <path id="DejaVuSans-74" d="M 1172 4494 
L 1172 3500 
L 2356 3500 
L 2356 3053 
L 1172 3053 
L 1172 1153 
Q 1172 725 1289 603 
Q 1406 481 1766 481 
L 2356 481 
L 2356 0 
L 1766 0 
Q 1100 0 847 248 
Q 594 497 594 1153 
L 594 3053 
L 172 3053 
L 172 3500 
L 594 3500 
L 594 4494 
L 1172 4494 
z
" transform="scale(0.015625)"/>
        <path id="DejaVuSans-79" d="M 2059 -325 
Q 1816 -950 1584 -1140 
Q 1353 -1331 966 -1331 
L 506 -1331 
L 506 -850 
L 844 -850 
Q 1081 -850 1212 -737 
Q 1344 -625 1503 -206 
L 1606 56 
L 191 3500 
L 800 3500 
L 1894 763 
L 2988 3500 
L 3597 3500 
L 2059 -325 
z
" transform="scale(0.015625)"/>
       </defs>
       <use xlink:href="#DejaVuSans-54"/>
       <use xlink:href="#DejaVuSans-77" x="44.583984"/>
       <use xlink:href="#DejaVuSans-65" x="126.371094"/>
       <use xlink:href="#DejaVuSans-65" x="187.894531"/>
       <use xlink:href="#DejaVuSans-74" x="249.417969"/>
       <use xlink:href="#DejaVuSans-79" x="288.626953"/>
       <use xlink:href="#DejaVuSans-4e" x="347.806641"/>
       <use xlink:href="#DejaVuSans-65" x="422.611328"/>
       <use xlink:href="#DejaVuSans-74" x="484.134766"/>
      </g>
     </g>
    </g>
   </g>
   <g id="matplotlib.axis_2">
    <g id="ytick_1">
     <g id="line2d_1">
      <path d="M 103.53375 672.48 
L 1777.53375 672.48 
" clip-path="url(#paeebccc302)" style="fill: none; stroke: #ffffff; stroke-width: 2; stroke-linecap: round"/>
     </g>
     <g id="text_3">
      <!-- 0 -->
      <g style="fill: #262626" transform="translate(67.0375 685.017422) scale(0.33 -0.33)">
       <defs>
        <path id="DejaVuSans-30" d="M 2034 4250 
Q 1547 4250 1301 3770 
Q 1056 3291 1056 2328 
Q 1056 1369 1301 889 
Q 1547 409 2034 409 
Q 2525 409 2770 889 
Q 3016 1369 3016 2328 
Q 3016 3291 2770 3770 
Q 2525 4250 2034 4250 
z
M 2034 4750 
Q 2819 4750 3233 4129 
Q 3647 3509 3647 2328 
Q 3647 1150 3233 529 
Q 2819 -91 2034 -91 
Q 1250 -91 836 529 
Q 422 1150 422 2328 
Q 422 3509 836 4129 
Q 1250 4750 2034 4750 
z
" transform="scale(0.015625)"/>
       </defs>
       <use xlink:href="#DejaVuSans-30"/>
      </g>
     </g>
    </g>
    <g id="ytick_2">
     <g id="line2d_2">
      <path d="M 103.53375 553.68 
L 1777.53375 553.68 
" clip-path="url(#paeebccc302)" style="fill: none; stroke: #ffffff; stroke-width: 2; stroke-linecap: round"/>
     </g>
     <g id="text_4">
      <!-- 5 -->
      <g style="fill: #262626" transform="translate(67.0375 566.217422) scale(0.33 -0.33)">
       <defs>
        <path id="DejaVuSans-35" d="M 691 4666 
L 3169 4666 
L 3169 4134 
L 1269 4134 
L 1269 2991 
Q 1406 3038 1543 3061 
Q 1681 3084 1819 3084 
Q 2600 3084 3056 2656 
Q 3513 2228 3513 1497 
Q 3513 744 3044 326 
Q 2575 -91 1722 -91 
Q 1428 -91 1123 -41 
Q 819 9 494 109 
L 494 744 
Q 775 591 1075 516 
Q 1375 441 1709 441 
Q 2250 441 2565 725 
Q 2881 1009 2881 1497 
Q 2881 1984 2565 2268 
Q 2250 2553 1709 2553 
Q 1456 2553 1204 2497 
Q 953 2441 691 2322 
L 691 4666 
z
" transform="scale(0.015625)"/>
       </defs>
       <use xlink:href="#DejaVuSans-35"/>
      </g>
     </g>
    </g>
    <g id="ytick_3">
     <g id="line2d_3">
      <path d="M 103.53375 434.88 
L 1777.53375 434.88 
" clip-path="url(#paeebccc302)" style="fill: none; stroke: #ffffff; stroke-width: 2; stroke-linecap: round"/>
     </g>
     <g id="text_5">
      <!-- 10 -->
      <g style="fill: #262626" transform="translate(46.04125 447.417422) scale(0.33 -0.33)">
       <defs>
        <path id="DejaVuSans-31" d="M 794 531 
L 1825 531 
L 1825 4091 
L 703 3866 
L 703 4441 
L 1819 4666 
L 2450 4666 
L 2450 531 
L 3481 531 
L 3481 0 
L 794 0 
L 794 531 
z
" transform="scale(0.015625)"/>
       </defs>
       <use xlink:href="#DejaVuSans-31"/>
       <use xlink:href="#DejaVuSans-30" x="63.623047"/>
      </g>
     </g>
    </g>
    <g id="ytick_4">
     <g id="line2d_4">
      <path d="M 103.53375 316.08 
L 1777.53375 316.08 
" clip-path="url(#paeebccc302)" style="fill: none; stroke: #ffffff; stroke-width: 2; stroke-linecap: round"/>
     </g>
     <g id="text_6">
      <!-- 15 -->
      <g style="fill: #262626" transform="translate(46.04125 328.617422) scale(0.33 -0.33)">
       <use xlink:href="#DejaVuSans-31"/>
       <use xlink:href="#DejaVuSans-35" x="63.623047"/>
      </g>
     </g>
    </g>
    <g id="ytick_5">
     <g id="line2d_5">
      <path d="M 103.53375 197.28 
L 1777.53375 197.28 
" clip-path="url(#paeebccc302)" style="fill: none; stroke: #ffffff; stroke-width: 2; stroke-linecap: round"/>
     </g>
     <g id="text_7">
      <!-- 20 -->
      <g style="fill: #262626" transform="translate(46.04125 209.817422) scale(0.33 -0.33)">
       <defs>
        <path id="DejaVuSans-32" d="M 1228 531 
L 3431 531 
L 3431 0 
L 469 0 
L 469 531 
Q 828 903 1448 1529 
Q 2069 2156 2228 2338 
Q 2531 2678 2651 2914 
Q 2772 3150 2772 3378 
Q 2772 3750 2511 3984 
Q 2250 4219 1831 4219 
Q 1534 4219 1204 4116 
Q 875 4013 500 3803 
L 500 4441 
Q 881 4594 1212 4672 
Q 1544 4750 1819 4750 
Q 2544 4750 2975 4387 
Q 3406 4025 3406 3419 
Q 3406 3131 3298 2873 
Q 3191 2616 2906 2266 
Q 2828 2175 2409 1742 
Q 1991 1309 1228 531 
z
" transform="scale(0.015625)"/>
       </defs>
       <use xlink:href="#DejaVuSans-32"/>
       <use xlink:href="#DejaVuSans-30" x="63.623047"/>
      </g>
     </g>
    </g>
    <g id="ytick_6">
     <g id="line2d_6">
      <path d="M 103.53375 78.48 
L 1777.53375 78.48 
" clip-path="url(#paeebccc302)" style="fill: none; stroke: #ffffff; stroke-width: 2; stroke-linecap: round"/>
     </g>
     <g id="text_8">
      <!-- 25 -->
      <g style="fill: #262626" transform="translate(46.04125 91.017422) scale(0.33 -0.33)">
       <use xlink:href="#DejaVuSans-32"/>
       <use xlink:href="#DejaVuSans-35" x="63.623047"/>
      </g>
     </g>
    </g>
    <g id="text_9">
     <!-- Character Error Rate (%) -->
     <g style="fill: #262626" transform="translate(34.554375 562.148438) rotate(-90) scale(0.36 -0.36)">
      <defs>
       <path id="DejaVuSans-68" d="M 3513 2113 
L 3513 0 
L 2938 0 
L 2938 2094 
Q 2938 2591 2744 2837 
Q 2550 3084 2163 3084 
Q 1697 3084 1428 2787 
Q 1159 2491 1159 1978 
L 1159 0 
L 581 0 
L 581 4863 
L 1159 4863 
L 1159 2956 
Q 1366 3272 1645 3428 
Q 1925 3584 2291 3584 
Q 2894 3584 3203 3211 
Q 3513 2838 3513 2113 
z
" transform="scale(0.015625)"/>
       <path id="DejaVuSans-61" d="M 2194 1759 
Q 1497 1759 1228 1600 
Q 959 1441 959 1056 
Q 959 750 1161 570 
Q 1363 391 1709 391 
Q 2188 391 2477 730 
Q 2766 1069 2766 1631 
L 2766 1759 
L 2194 1759 
z
M 3341 1997 
L 3341 0 
L 2766 0 
L 2766 531 
Q 2569 213 2275 61 
Q 1981 -91 1556 -91 
Q 1019 -91 701 211 
Q 384 513 384 1019 
Q 384 1609 779 1909 
Q 1175 2209 1959 2209 
L 2766 2209 
L 2766 2266 
Q 2766 2663 2505 2880 
Q 2244 3097 1772 3097 
Q 1472 3097 1187 3025 
Q 903 2953 641 2809 
L 641 3341 
Q 956 3463 1253 3523 
Q 1550 3584 1831 3584 
Q 2591 3584 2966 3190 
Q 3341 2797 3341 1997 
z
" transform="scale(0.015625)"/>
       <path id="DejaVuSans-72" d="M 2631 2963 
Q 2534 3019 2420 3045 
Q 2306 3072 2169 3072 
Q 1681 3072 1420 2755 
Q 1159 2438 1159 1844 
L 1159 0 
L 581 0 
L 581 3500 
L 1159 3500 
L 1159 2956 
Q 1341 3275 1631 3429 
Q 1922 3584 2338 3584 
Q 2397 3584 2469 3576 
Q 2541 3569 2628 3553 
L 2631 2963 
z
" transform="scale(0.015625)"/>
       <path id="DejaVuSans-63" d="M 3122 3366 
L 3122 2828 
Q 2878 2963 2633 3030 
Q 2388 3097 2138 3097 
Q 1578 3097 1268 2742 
Q 959 2388 959 1747 
Q 959 1106 1268 751 
Q 1578 397 2138 397 
Q 2388 397 2633 464 
Q 2878 531 3122 666 
L 3122 134 
Q 2881 22 2623 -34 
Q 2366 -91 2075 -91 
Q 1284 -91 818 406 
Q 353 903 353 1747 
Q 353 2603 823 3093 
Q 1294 3584 2113 3584 
Q 2378 3584 2631 3529 
Q 2884 3475 3122 3366 
z
" transform="scale(0.015625)"/>
       <path id="DejaVuSans-20" transform="scale(0.015625)"/>
       <path id="DejaVuSans-45" d="M 628 4666 
L 3578 4666 
L 3578 4134 
L 1259 4134 
L 1259 2753 
L 3481 2753 
L 3481 2222 
L 1259 2222 
L 1259 531 
L 3634 531 
L 3634 0 
L 628 0 
L 628 4666 
z
" transform="scale(0.015625)"/>
       <path id="DejaVuSans-52" d="M 2841 2188 
Q 3044 2119 3236 1894 
Q 3428 1669 3622 1275 
L 4263 0 
L 3584 0 
L 2988 1197 
Q 2756 1666 2539 1819 
Q 2322 1972 1947 1972 
L 1259 1972 
L 1259 0 
L 628 0 
L 628 4666 
L 2053 4666 
Q 2853 4666 3247 4331 
Q 3641 3997 3641 3322 
Q 3641 2881 3436 2590 
Q 3231 2300 2841 2188 
z
M 1259 4147 
L 1259 2491 
L 2053 2491 
Q 2509 2491 2742 2702 
Q 2975 2913 2975 3322 
Q 2975 3731 2742 3939 
Q 2509 4147 2053 4147 
L 1259 4147 
z
" transform="scale(0.015625)"/>
       <path id="DejaVuSans-28" d="M 1984 4856 
Q 1566 4138 1362 3434 
Q 1159 2731 1159 2009 
Q 1159 1288 1364 580 
Q 1569 -128 1984 -844 
L 1484 -844 
Q 1016 -109 783 600 
Q 550 1309 550 2009 
Q 550 2706 781 3412 
Q 1013 4119 1484 4856 
L 1984 4856 
z
" transform="scale(0.015625)"/>
       <path id="DejaVuSans-25" d="M 4653 2053 
Q 4381 2053 4226 1822 
Q 4072 1591 4072 1178 
Q 4072 772 4226 539 
Q 4381 306 4653 306 
Q 4919 306 5073 539 
Q 5228 772 5228 1178 
Q 5228 1588 5073 1820 
Q 4919 2053 4653 2053 
z
M 4653 2450 
Q 5147 2450 5437 2106 
Q 5728 1763 5728 1178 
Q 5728 594 5436 251 
Q 5144 -91 4653 -91 
Q 4153 -91 3862 251 
Q 3572 594 3572 1178 
Q 3572 1766 3864 2108 
Q 4156 2450 4653 2450 
z
M 1428 4353 
Q 1159 4353 1004 4120 
Q 850 3888 850 3481 
Q 850 3069 1003 2837 
Q 1156 2606 1428 2606 
Q 1700 2606 1854 2837 
Q 2009 3069 2009 3481 
Q 2009 3884 1853 4118 
Q 1697 4353 1428 4353 
z
M 4250 4750 
L 4750 4750 
L 1831 -91 
L 1331 -91 
L 4250 4750 
z
M 1428 4750 
Q 1922 4750 2215 4408 
Q 2509 4066 2509 3481 
Q 2509 2891 2217 2550 
Q 1925 2209 1428 2209 
Q 931 2209 642 2551 
Q 353 2894 353 3481 
Q 353 4063 643 4406 
Q 934 4750 1428 4750 
z
" transform="scale(0.015625)"/>
       <path id="DejaVuSans-29" d="M 513 4856 
L 1013 4856 
Q 1481 4119 1714 3412 
Q 1947 2706 1947 2009 
Q 1947 1309 1714 600 
Q 1481 -109 1013 -844 
L 513 -844 
Q 928 -128 1133 580 
Q 1338 1288 1338 2009 
Q 1338 2731 1133 3434 
Q 928 4138 513 4856 
z
" transform="scale(0.015625)"/>
      </defs>
      <use xlink:href="#DejaVuSans-43"/>
      <use xlink:href="#DejaVuSans-68" x="69.824219"/>
      <use xlink:href="#DejaVuSans-61" x="133.203125"/>
      <use xlink:href="#DejaVuSans-72" x="194.482422"/>
      <use xlink:href="#DejaVuSans-61" x="235.595703"/>
      <use xlink:href="#DejaVuSans-63" x="296.875"/>
      <use xlink:href="#DejaVuSans-74" x="351.855469"/>
      <use xlink:href="#DejaVuSans-65" x="391.064453"/>
      <use xlink:href="#DejaVuSans-72" x="452.587891"/>
      <use xlink:href="#DejaVuSans-20" x="493.701172"/>
      <use xlink:href="#DejaVuSans-45" x="525.488281"/>
      <use xlink:href="#DejaVuSans-72" x="588.671875"/>
      <use xlink:href="#DejaVuSans-72" x="628.035156"/>
      <use xlink:href="#DejaVuSans-6f" x="666.898438"/>
      <use xlink:href="#DejaVuSans-72" x="728.080078"/>
      <use xlink:href="#DejaVuSans-20" x="769.193359"/>
      <use xlink:href="#DejaVuSans-52" x="800.980469"/>
      <use xlink:href="#DejaVuSans-61" x="868.212891"/>
      <use xlink:href="#DejaVuSans-74" x="929.492188"/>
      <use xlink:href="#DejaVuSans-65" x="968.701172"/>
      <use xlink:href="#DejaVuSans-20" x="1030.224609"/>
      <use xlink:href="#DejaVuSans-28" x="1062.011719"/>
      <use xlink:href="#DejaVuSans-25" x="1101.025391"/>
      <use xlink:href="#DejaVuSans-29" x="1196.044922"/>
     </g>
    </g>
   </g>
   <g id="patch_3">
    <path d="M 187.23375 672.48 
L 298.83375 672.48 
L 298.83375 268.248671 
L 187.23375 268.248671 
z
" clip-path="url(#paeebccc302)" style="fill: #e68193; stroke: #ffffff; stroke-width: 2; stroke-linejoin: miter"/>
   </g>
   <g id="patch_4">
    <path d="M 1024.23375 672.48 
L 1135.83375 672.48 
L 1135.83375 447.437073 
L 1024.23375 447.437073 
z
" clip-path="url(#paeebccc302)" style="fill: #e68193; stroke: #ffffff; stroke-width: 2; stroke-linejoin: miter"/>
   </g>
   <g id="patch_5">
    <path d="M 298.83375 672.48 
L 410.43375 672.48 
L 410.43375 383.712712 
L 298.83375 383.712712 
z
" clip-path="url(#paeebccc302)" style="fill: #aa8f43; stroke: #ffffff; stroke-width: 2; stroke-linejoin: miter"/>
   </g>
   <g id="patch_6">
    <path d="M 1135.83375 672.48 
L 1247.43375 672.48 
L 1247.43375 592.310505 
L 1135.83375 592.310505 
z
" clip-path="url(#paeebccc302)" style="fill: #aa8f43; stroke: #ffffff; stroke-width: 2; stroke-linejoin: miter"/>
   </g>
   <g id="patch_7">
    <path d="M 410.43375 672.48 
L 522.03375 672.48 
L 522.03375 393.236006 
L 410.43375 393.236006 
z
" clip-path="url(#paeebccc302)" style="fill: #58a141; stroke: #ffffff; stroke-width: 2; stroke-linejoin: miter"/>
   </g>
   <g id="patch_8">
    <path d="M 1247.43375 672.48 
L 1359.03375 672.48 
L 1359.03375 573.349764 
L 1247.43375 573.349764 
z
" clip-path="url(#paeebccc302)" style="fill: #58a141; stroke: #ffffff; stroke-width: 2; stroke-linejoin: miter"/>
   </g>
   <g id="patch_9">
    <path d="M 522.03375 672.48 
L 633.63375 672.48 
L 633.63375 625.725208 
L 522.03375 625.725208 
z
" clip-path="url(#paeebccc302)" style="fill: #459e97; stroke: #ffffff; stroke-width: 2; stroke-linejoin: miter"/>
   </g>
   <g id="patch_10">
    <path d="M 1359.03375 672.48 
L 1470.63375 672.48 
L 1470.63375 634.621419 
L 1359.03375 634.621419 
z
" clip-path="url(#paeebccc302)" style="fill: #459e97; stroke: #ffffff; stroke-width: 2; stroke-linejoin: miter"/>
   </g>
   <g id="patch_11">
    <path d="M 633.63375 672.48 
L 745.23375 672.48 
L 745.23375 632.430145 
L 633.63375 632.430145 
z
" clip-path="url(#paeebccc302)" style="fill: #529fd6; stroke: #ffffff; stroke-width: 2; stroke-linejoin: miter"/>
   </g>
   <g id="patch_12">
    <path d="M 1470.63375 672.48 
L 1582.23375 672.48 
L 1582.23375 643.125996 
L 1470.63375 643.125996 
z
" clip-path="url(#paeebccc302)" style="fill: #529fd6; stroke: #ffffff; stroke-width: 2; stroke-linejoin: miter"/>
   </g>
   <g id="patch_13">
    <path d="M 745.23375 672.48 
L 856.83375 672.48 
L 856.83375 634.08101 
L 745.23375 634.08101 
z
" clip-path="url(#paeebccc302)" style="fill: #d978e2; stroke: #ffffff; stroke-width: 2; stroke-linejoin: miter"/>
   </g>
   <g id="patch_14">
    <path d="M 1582.23375 672.48 
L 1693.83375 672.48 
L 1693.83375 638.796112 
L 1582.23375 638.796112 
z
" clip-path="url(#paeebccc302)" style="fill: #d978e2; stroke: #ffffff; stroke-width: 2; stroke-linejoin: miter"/>
   </g>
   <g id="line2d_7">
    <path clip-path="url(#paeebccc302)" style="fill: none; stroke: #424242; stroke-width: 5.4; stroke-linecap: round"/>
   </g>
   <g id="line2d_8">
    <path clip-path="url(#paeebccc302)" style="fill: none; stroke: #424242; stroke-width: 5.4; stroke-linecap: round"/>
   </g>
   <g id="line2d_9">
    <path clip-path="url(#paeebccc302)" style="fill: none; stroke: #424242; stroke-width: 5.4; stroke-linecap: round"/>
   </g>
   <g id="line2d_10">
    <path clip-path="url(#paeebccc302)" style="fill: none; stroke: #424242; stroke-width: 5.4; stroke-linecap: round"/>
   </g>
   <g id="line2d_11">
    <path clip-path="url(#paeebccc302)" style="fill: none; stroke: #424242; stroke-width: 5.4; stroke-linecap: round"/>
   </g>
   <g id="line2d_12">
    <path clip-path="url(#paeebccc302)" style="fill: none; stroke: #424242; stroke-width: 5.4; stroke-linecap: round"/>
   </g>
   <g id="line2d_13">
    <path clip-path="url(#paeebccc302)" style="fill: none; stroke: #424242; stroke-width: 5.4; stroke-linecap: round"/>
   </g>
   <g id="line2d_14">
    <path clip-path="url(#paeebccc302)" style="fill: none; stroke: #424242; stroke-width: 5.4; stroke-linecap: round"/>
   </g>
   <g id="line2d_15">
    <path clip-path="url(#paeebccc302)" style="fill: none; stroke: #424242; stroke-width: 5.4; stroke-linecap: round"/>
   </g>
   <g id="line2d_16">
    <path clip-path="url(#paeebccc302)" style="fill: none; stroke: #424242; stroke-width: 5.4; stroke-linecap: round"/>
   </g>
   <g id="line2d_17">
    <path clip-path="url(#paeebccc302)" style="fill: none; stroke: #424242; stroke-width: 5.4; stroke-linecap: round"/>
   </g>
   <g id="line2d_18">
    <path clip-path="url(#paeebccc302)" style="fill: none; stroke: #424242; stroke-width: 5.4; stroke-linecap: round"/>
   </g>
   <g id="patch_15">
    <path d="M 103.53375 672.48 
L 103.53375 7.2 
" style="fill: none; stroke: #ffffff; stroke-width: 2.5; stroke-linejoin: miter; stroke-linecap: square"/>
   </g>
   <g id="patch_16">
    <path d="M 1777.53375 672.48 
L 1777.53375 7.2 
" style="fill: none; stroke: #ffffff; stroke-width: 2.5; stroke-linejoin: miter; stroke-linecap: square"/>
   </g>
   <g id="patch_17">
    <path d="M 103.53375 672.48 
L 1777.53375 672.48 
" style="fill: none; stroke: #ffffff; stroke-width: 2.5; stroke-linejoin: miter; stroke-linecap: square"/>
   </g>
   <g id="patch_18">
    <path d="M 103.53375 7.2 
L 1777.53375 7.2 
" style="fill: none; stroke: #ffffff; stroke-width: 2.5; stroke-linejoin: miter; stroke-linecap: square"/>
   </g>
   <g id="text_10">
    <!-- 17.01% -->
    <g style="fill: #262626" transform="translate(204.904063 236.693671) scale(0.2 -0.2)">
     <defs>
      <path id="DejaVuSans-37" d="M 525 4666 
L 3525 4666 
L 3525 4397 
L 1831 0 
L 1172 0 
L 2766 4134 
L 525 4134 
L 525 4666 
z
" transform="scale(0.015625)"/>
      <path id="DejaVuSans-2e" d="M 684 794 
L 1344 794 
L 1344 0 
L 684 0 
L 684 794 
z
" transform="scale(0.015625)"/>
     </defs>
     <use xlink:href="#DejaVuSans-31"/>
     <use xlink:href="#DejaVuSans-37" x="63.623047"/>
     <use xlink:href="#DejaVuSans-2e" x="127.246094"/>
     <use xlink:href="#DejaVuSans-30" x="159.033203"/>
     <use xlink:href="#DejaVuSans-31" x="222.65625"/>
     <use xlink:href="#DejaVuSans-25" x="286.279297"/>
    </g>
    <!-- ±2.15% -->
    <g style="fill: #262626" transform="translate(202.886875 259.089296) scale(0.2 -0.2)">
     <defs>
      <path id="DejaVuSans-b1" d="M 2944 4013 
L 2944 2803 
L 4684 2803 
L 4684 2272 
L 2944 2272 
L 2944 1063 
L 2419 1063 
L 2419 2272 
L 678 2272 
L 678 2803 
L 2419 2803 
L 2419 4013 
L 2944 4013 
z
M 678 531 
L 4684 531 
L 4684 0 
L 678 0 
L 678 531 
z
" transform="scale(0.015625)"/>
     </defs>
     <use xlink:href="#DejaVuSans-b1"/>
     <use xlink:href="#DejaVuSans-32" x="83.789062"/>
     <use xlink:href="#DejaVuSans-2e" x="147.412109"/>
     <use xlink:href="#DejaVuSans-31" x="179.199219"/>
     <use xlink:href="#DejaVuSans-35" x="242.822266"/>
     <use xlink:href="#DejaVuSans-25" x="306.445312"/>
    </g>
   </g>
   <g id="text_11">
    <!-- 9.47% -->
    <g style="fill: #262626" transform="translate(1048.266562 415.882073) scale(0.2 -0.2)">
     <defs>
      <path id="DejaVuSans-39" d="M 703 97 
L 703 672 
Q 941 559 1184 500 
Q 1428 441 1663 441 
Q 2288 441 2617 861 
Q 2947 1281 2994 2138 
Q 2813 1869 2534 1725 
Q 2256 1581 1919 1581 
Q 1219 1581 811 2004 
Q 403 2428 403 3163 
Q 403 3881 828 4315 
Q 1253 4750 1959 4750 
Q 2769 4750 3195 4129 
Q 3622 3509 3622 2328 
Q 3622 1225 3098 567 
Q 2575 -91 1691 -91 
Q 1453 -91 1209 -44 
Q 966 3 703 97 
z
M 1959 2075 
Q 2384 2075 2632 2365 
Q 2881 2656 2881 3163 
Q 2881 3666 2632 3958 
Q 2384 4250 1959 4250 
Q 1534 4250 1286 3958 
Q 1038 3666 1038 3163 
Q 1038 2656 1286 2365 
Q 1534 2075 1959 2075 
z
" transform="scale(0.015625)"/>
      <path id="DejaVuSans-34" d="M 2419 4116 
L 825 1625 
L 2419 1625 
L 2419 4116 
z
M 2253 4666 
L 3047 4666 
L 3047 1625 
L 3713 1625 
L 3713 1100 
L 3047 1100 
L 3047 0 
L 2419 0 
L 2419 1100 
L 313 1100 
L 313 1709 
L 2253 4666 
z
" transform="scale(0.015625)"/>
     </defs>
     <use xlink:href="#DejaVuSans-39"/>
     <use xlink:href="#DejaVuSans-2e" x="63.623047"/>
     <use xlink:href="#DejaVuSans-34" x="95.410156"/>
     <use xlink:href="#DejaVuSans-37" x="159.033203"/>
     <use xlink:href="#DejaVuSans-25" x="222.65625"/>
    </g>
    <!-- ±3.32% -->
    <g style="fill: #262626" transform="translate(1039.886875 438.277698) scale(0.2 -0.2)">
     <defs>
      <path id="DejaVuSans-33" d="M 2597 2516 
Q 3050 2419 3304 2112 
Q 3559 1806 3559 1356 
Q 3559 666 3084 287 
Q 2609 -91 1734 -91 
Q 1441 -91 1130 -33 
Q 819 25 488 141 
L 488 750 
Q 750 597 1062 519 
Q 1375 441 1716 441 
Q 2309 441 2620 675 
Q 2931 909 2931 1356 
Q 2931 1769 2642 2001 
Q 2353 2234 1838 2234 
L 1294 2234 
L 1294 2753 
L 1863 2753 
Q 2328 2753 2575 2939 
Q 2822 3125 2822 3475 
Q 2822 3834 2567 4026 
Q 2313 4219 1838 4219 
Q 1578 4219 1281 4162 
Q 984 4106 628 3988 
L 628 4550 
Q 988 4650 1302 4700 
Q 1616 4750 1894 4750 
Q 2613 4750 3031 4423 
Q 3450 4097 3450 3541 
Q 3450 3153 3228 2886 
Q 3006 2619 2597 2516 
z
" transform="scale(0.015625)"/>
     </defs>
     <use xlink:href="#DejaVuSans-b1"/>
     <use xlink:href="#DejaVuSans-33" x="83.789062"/>
     <use xlink:href="#DejaVuSans-2e" x="147.412109"/>
     <use xlink:href="#DejaVuSans-33" x="179.199219"/>
     <use xlink:href="#DejaVuSans-32" x="242.822266"/>
     <use xlink:href="#DejaVuSans-25" x="306.445312"/>
    </g>
   </g>
   <g id="text_12">
    <!-- 12.15% -->
    <g style="fill: #262626" transform="translate(316.504063 352.157712) scale(0.2 -0.2)">
     <use xlink:href="#DejaVuSans-31"/>
     <use xlink:href="#DejaVuSans-32" x="63.623047"/>
     <use xlink:href="#DejaVuSans-2e" x="127.246094"/>
     <use xlink:href="#DejaVuSans-31" x="159.033203"/>
     <use xlink:href="#DejaVuSans-35" x="222.65625"/>
     <use xlink:href="#DejaVuSans-25" x="286.279297"/>
    </g>
    <!-- ±0.74% -->
    <g style="fill: #262626" transform="translate(314.486875 374.553337) scale(0.2 -0.2)">
     <use xlink:href="#DejaVuSans-b1"/>
     <use xlink:href="#DejaVuSans-30" x="83.789062"/>
     <use xlink:href="#DejaVuSans-2e" x="147.412109"/>
     <use xlink:href="#DejaVuSans-37" x="179.199219"/>
     <use xlink:href="#DejaVuSans-34" x="242.822266"/>
     <use xlink:href="#DejaVuSans-25" x="306.445312"/>
    </g>
   </g>
   <g id="text_13">
    <!-- 3.37% -->
    <g style="fill: #262626" transform="translate(1159.866562 560.755505) scale(0.2 -0.2)">
     <use xlink:href="#DejaVuSans-33"/>
     <use xlink:href="#DejaVuSans-2e" x="63.623047"/>
     <use xlink:href="#DejaVuSans-33" x="95.410156"/>
     <use xlink:href="#DejaVuSans-37" x="159.033203"/>
     <use xlink:href="#DejaVuSans-25" x="222.65625"/>
    </g>
    <!-- ±0.56% -->
    <g style="fill: #262626" transform="translate(1151.486875 583.15113) scale(0.2 -0.2)">
     <defs>
      <path id="DejaVuSans-36" d="M 2113 2584 
Q 1688 2584 1439 2293 
Q 1191 2003 1191 1497 
Q 1191 994 1439 701 
Q 1688 409 2113 409 
Q 2538 409 2786 701 
Q 3034 994 3034 1497 
Q 3034 2003 2786 2293 
Q 2538 2584 2113 2584 
z
M 3366 4563 
L 3366 3988 
Q 3128 4100 2886 4159 
Q 2644 4219 2406 4219 
Q 1781 4219 1451 3797 
Q 1122 3375 1075 2522 
Q 1259 2794 1537 2939 
Q 1816 3084 2150 3084 
Q 2853 3084 3261 2657 
Q 3669 2231 3669 1497 
Q 3669 778 3244 343 
Q 2819 -91 2113 -91 
Q 1303 -91 875 529 
Q 447 1150 447 2328 
Q 447 3434 972 4092 
Q 1497 4750 2381 4750 
Q 2619 4750 2861 4703 
Q 3103 4656 3366 4563 
z
" transform="scale(0.015625)"/>
     </defs>
     <use xlink:href="#DejaVuSans-b1"/>
     <use xlink:href="#DejaVuSans-30" x="83.789062"/>
     <use xlink:href="#DejaVuSans-2e" x="147.412109"/>
     <use xlink:href="#DejaVuSans-35" x="179.199219"/>
     <use xlink:href="#DejaVuSans-36" x="242.822266"/>
     <use xlink:href="#DejaVuSans-25" x="306.445312"/>
    </g>
   </g>
   <g id="text_14">
    <!-- 11.75% -->
    <g style="fill: #262626" transform="translate(428.104063 361.681006) scale(0.2 -0.2)">
     <use xlink:href="#DejaVuSans-31"/>
     <use xlink:href="#DejaVuSans-31" x="63.623047"/>
     <use xlink:href="#DejaVuSans-2e" x="127.246094"/>
     <use xlink:href="#DejaVuSans-37" x="159.033203"/>
     <use xlink:href="#DejaVuSans-35" x="222.65625"/>
     <use xlink:href="#DejaVuSans-25" x="286.279297"/>
    </g>
    <!-- ±1.40% -->
    <g style="fill: #262626" transform="translate(426.086875 384.076631) scale(0.2 -0.2)">
     <use xlink:href="#DejaVuSans-b1"/>
     <use xlink:href="#DejaVuSans-31" x="83.789062"/>
     <use xlink:href="#DejaVuSans-2e" x="147.412109"/>
     <use xlink:href="#DejaVuSans-34" x="179.199219"/>
     <use xlink:href="#DejaVuSans-30" x="242.822266"/>
     <use xlink:href="#DejaVuSans-25" x="306.445312"/>
    </g>
   </g>
   <g id="text_15">
    <!-- 4.17% -->
    <g style="fill: #262626" transform="translate(1271.466563 541.794764) scale(0.2 -0.2)">
     <use xlink:href="#DejaVuSans-34"/>
     <use xlink:href="#DejaVuSans-2e" x="63.623047"/>
     <use xlink:href="#DejaVuSans-31" x="95.410156"/>
     <use xlink:href="#DejaVuSans-37" x="159.033203"/>
     <use xlink:href="#DejaVuSans-25" x="222.65625"/>
    </g>
    <!-- ±0.58% -->
    <g style="fill: #262626" transform="translate(1263.086875 564.190389) scale(0.2 -0.2)">
     <defs>
      <path id="DejaVuSans-38" d="M 2034 2216 
Q 1584 2216 1326 1975 
Q 1069 1734 1069 1313 
Q 1069 891 1326 650 
Q 1584 409 2034 409 
Q 2484 409 2743 651 
Q 3003 894 3003 1313 
Q 3003 1734 2745 1975 
Q 2488 2216 2034 2216 
z
M 1403 2484 
Q 997 2584 770 2862 
Q 544 3141 544 3541 
Q 544 4100 942 4425 
Q 1341 4750 2034 4750 
Q 2731 4750 3128 4425 
Q 3525 4100 3525 3541 
Q 3525 3141 3298 2862 
Q 3072 2584 2669 2484 
Q 3125 2378 3379 2068 
Q 3634 1759 3634 1313 
Q 3634 634 3220 271 
Q 2806 -91 2034 -91 
Q 1263 -91 848 271 
Q 434 634 434 1313 
Q 434 1759 690 2068 
Q 947 2378 1403 2484 
z
M 1172 3481 
Q 1172 3119 1398 2916 
Q 1625 2713 2034 2713 
Q 2441 2713 2670 2916 
Q 2900 3119 2900 3481 
Q 2900 3844 2670 4047 
Q 2441 4250 2034 4250 
Q 1625 4250 1398 4047 
Q 1172 3844 1172 3481 
z
" transform="scale(0.015625)"/>
     </defs>
     <use xlink:href="#DejaVuSans-b1"/>
     <use xlink:href="#DejaVuSans-30" x="83.789062"/>
     <use xlink:href="#DejaVuSans-2e" x="147.412109"/>
     <use xlink:href="#DejaVuSans-35" x="179.199219"/>
     <use xlink:href="#DejaVuSans-38" x="242.822266"/>
     <use xlink:href="#DejaVuSans-25" x="306.445312"/>
    </g>
   </g>
   <g id="text_16">
    <!-- 1.97% -->
    <g style="fill: #262626" transform="translate(546.066563 594.170208) scale(0.2 -0.2)">
     <use xlink:href="#DejaVuSans-31"/>
     <use xlink:href="#DejaVuSans-2e" x="63.623047"/>
     <use xlink:href="#DejaVuSans-39" x="95.410156"/>
     <use xlink:href="#DejaVuSans-37" x="159.033203"/>
     <use xlink:href="#DejaVuSans-25" x="222.65625"/>
    </g>
    <!-- ±0.46% -->
    <g style="fill: #262626" transform="translate(537.686875 616.565833) scale(0.2 -0.2)">
     <use xlink:href="#DejaVuSans-b1"/>
     <use xlink:href="#DejaVuSans-30" x="83.789062"/>
     <use xlink:href="#DejaVuSans-2e" x="147.412109"/>
     <use xlink:href="#DejaVuSans-34" x="179.199219"/>
     <use xlink:href="#DejaVuSans-36" x="242.822266"/>
     <use xlink:href="#DejaVuSans-25" x="306.445312"/>
    </g>
   </g>
   <g id="text_17">
    <!-- 1.59% -->
    <g style="fill: #262626" transform="translate(1383.066563 603.066419) scale(0.2 -0.2)">
     <use xlink:href="#DejaVuSans-31"/>
     <use xlink:href="#DejaVuSans-2e" x="63.623047"/>
     <use xlink:href="#DejaVuSans-35" x="95.410156"/>
     <use xlink:href="#DejaVuSans-39" x="159.033203"/>
     <use xlink:href="#DejaVuSans-25" x="222.65625"/>
    </g>
    <!-- ±0.15% -->
    <g style="fill: #262626" transform="translate(1374.686875 625.462044) scale(0.2 -0.2)">
     <use xlink:href="#DejaVuSans-b1"/>
     <use xlink:href="#DejaVuSans-30" x="83.789062"/>
     <use xlink:href="#DejaVuSans-2e" x="147.412109"/>
     <use xlink:href="#DejaVuSans-31" x="179.199219"/>
     <use xlink:href="#DejaVuSans-35" x="242.822266"/>
     <use xlink:href="#DejaVuSans-25" x="306.445312"/>
    </g>
   </g>
   <g id="text_18">
    <!-- 1.69% -->
    <g style="fill: #262626" transform="translate(657.666563 600.875145) scale(0.2 -0.2)">
     <use xlink:href="#DejaVuSans-31"/>
     <use xlink:href="#DejaVuSans-2e" x="63.623047"/>
     <use xlink:href="#DejaVuSans-36" x="95.410156"/>
     <use xlink:href="#DejaVuSans-39" x="159.033203"/>
     <use xlink:href="#DejaVuSans-25" x="222.65625"/>
    </g>
    <!-- ±0.16% -->
    <g style="fill: #262626" transform="translate(649.286875 623.27077) scale(0.2 -0.2)">
     <use xlink:href="#DejaVuSans-b1"/>
     <use xlink:href="#DejaVuSans-30" x="83.789062"/>
     <use xlink:href="#DejaVuSans-2e" x="147.412109"/>
     <use xlink:href="#DejaVuSans-31" x="179.199219"/>
     <use xlink:href="#DejaVuSans-36" x="242.822266"/>
     <use xlink:href="#DejaVuSans-25" x="306.445312"/>
    </g>
   </g>
   <g id="text_19">
    <!-- 1.24% -->
    <g style="fill: #262626" transform="translate(1494.666563 611.570996) scale(0.2 -0.2)">
     <use xlink:href="#DejaVuSans-31"/>
     <use xlink:href="#DejaVuSans-2e" x="63.623047"/>
     <use xlink:href="#DejaVuSans-32" x="95.410156"/>
     <use xlink:href="#DejaVuSans-34" x="159.033203"/>
     <use xlink:href="#DejaVuSans-25" x="222.65625"/>
    </g>
    <!-- ±0.21% -->
    <g style="fill: #262626" transform="translate(1486.286875 633.966621) scale(0.2 -0.2)">
     <use xlink:href="#DejaVuSans-b1"/>
     <use xlink:href="#DejaVuSans-30" x="83.789062"/>
     <use xlink:href="#DejaVuSans-2e" x="147.412109"/>
     <use xlink:href="#DejaVuSans-32" x="179.199219"/>
     <use xlink:href="#DejaVuSans-31" x="242.822266"/>
     <use xlink:href="#DejaVuSans-25" x="306.445312"/>
    </g>
   </g>
   <g id="text_20">
    <!-- 1.62% -->
    <g style="fill: #262626" transform="translate(769.266563 602.52601) scale(0.2 -0.2)">
     <use xlink:href="#DejaVuSans-31"/>
     <use xlink:href="#DejaVuSans-2e" x="63.623047"/>
     <use xlink:href="#DejaVuSans-36" x="95.410156"/>
     <use xlink:href="#DejaVuSans-32" x="159.033203"/>
     <use xlink:href="#DejaVuSans-25" x="222.65625"/>
    </g>
    <!-- ±0.30% -->
    <g style="fill: #262626" transform="translate(760.886875 624.921635) scale(0.2 -0.2)">
     <use xlink:href="#DejaVuSans-b1"/>
     <use xlink:href="#DejaVuSans-30" x="83.789062"/>
     <use xlink:href="#DejaVuSans-2e" x="147.412109"/>
     <use xlink:href="#DejaVuSans-33" x="179.199219"/>
     <use xlink:href="#DejaVuSans-30" x="242.822266"/>
     <use xlink:href="#DejaVuSans-25" x="306.445312"/>
    </g>
   </g>
   <g id="text_21">
    <!-- 1.42% -->
    <g style="fill: #262626" transform="translate(1606.266563 607.241112) scale(0.2 -0.2)">
     <use xlink:href="#DejaVuSans-31"/>
     <use xlink:href="#DejaVuSans-2e" x="63.623047"/>
     <use xlink:href="#DejaVuSans-34" x="95.410156"/>
     <use xlink:href="#DejaVuSans-32" x="159.033203"/>
     <use xlink:href="#DejaVuSans-25" x="222.65625"/>
    </g>
    <!-- ±0.23% -->
    <g style="fill: #262626" transform="translate(1597.886875 629.636737) scale(0.2 -0.2)">
     <use xlink:href="#DejaVuSans-b1"/>
     <use xlink:href="#DejaVuSans-30" x="83.789062"/>
     <use xlink:href="#DejaVuSans-2e" x="147.412109"/>
     <use xlink:href="#DejaVuSans-32" x="179.199219"/>
     <use xlink:href="#DejaVuSans-33" x="242.822266"/>
     <use xlink:href="#DejaVuSans-25" x="306.445312"/>
    </g>
   </g>
   <g id="legend_1">
    <g id="patch_19">
     <path d="M 1104.029531 324.226875 
L 1754.43375 324.226875 
Q 1761.03375 324.226875 1761.03375 317.626875 
L 1761.03375 30.3 
Q 1761.03375 23.7 1754.43375 23.7 
L 1104.029531 23.7 
Q 1097.429531 23.7 1097.429531 30.3 
L 1097.429531 317.626875 
Q 1097.429531 324.226875 1104.029531 324.226875 
z
" style="fill: #eaeaf2; opacity: 0.8; stroke: #cccccc; stroke-width: 2; stroke-linejoin: miter"/>
    </g>
    <g id="patch_20">
     <path d="M 1110.629531 61.974844 
L 1176.629531 61.974844 
L 1176.629531 38.874844 
L 1110.629531 38.874844 
z
" style="fill: #e68193; stroke: #ffffff; stroke-width: 2; stroke-linejoin: miter"/>
    </g>
    <g id="text_22">
     <!-- Loss: CE -->
     <g style="fill: #262626" transform="translate(1203.029531 61.974844) scale(0.33 -0.33)">
      <defs>
       <path id="DejaVuSans-4c" d="M 628 4666 
L 1259 4666 
L 1259 531 
L 3531 531 
L 3531 0 
L 628 0 
L 628 4666 
z
" transform="scale(0.015625)"/>
       <path id="DejaVuSans-73" d="M 2834 3397 
L 2834 2853 
Q 2591 2978 2328 3040 
Q 2066 3103 1784 3103 
Q 1356 3103 1142 2972 
Q 928 2841 928 2578 
Q 928 2378 1081 2264 
Q 1234 2150 1697 2047 
L 1894 2003 
Q 2506 1872 2764 1633 
Q 3022 1394 3022 966 
Q 3022 478 2636 193 
Q 2250 -91 1575 -91 
Q 1294 -91 989 -36 
Q 684 19 347 128 
L 347 722 
Q 666 556 975 473 
Q 1284 391 1588 391 
Q 1994 391 2212 530 
Q 2431 669 2431 922 
Q 2431 1156 2273 1281 
Q 2116 1406 1581 1522 
L 1381 1569 
Q 847 1681 609 1914 
Q 372 2147 372 2553 
Q 372 3047 722 3315 
Q 1072 3584 1716 3584 
Q 2034 3584 2315 3537 
Q 2597 3491 2834 3397 
z
" transform="scale(0.015625)"/>
       <path id="DejaVuSans-3a" d="M 750 794 
L 1409 794 
L 1409 0 
L 750 0 
L 750 794 
z
M 750 3309 
L 1409 3309 
L 1409 2516 
L 750 2516 
L 750 3309 
z
" transform="scale(0.015625)"/>
      </defs>
      <use xlink:href="#DejaVuSans-4c"/>
      <use xlink:href="#DejaVuSans-6f" x="53.962891"/>
      <use xlink:href="#DejaVuSans-73" x="115.144531"/>
      <use xlink:href="#DejaVuSans-73" x="167.244141"/>
      <use xlink:href="#DejaVuSans-3a" x="219.34375"/>
      <use xlink:href="#DejaVuSans-20" x="253.035156"/>
      <use xlink:href="#DejaVuSans-43" x="284.822266"/>
      <use xlink:href="#DejaVuSans-45" x="354.646484"/>
     </g>
    </g>
    <g id="patch_21">
     <path d="M 1110.629531 110.412656 
L 1176.629531 110.412656 
L 1176.629531 87.312656 
L 1110.629531 87.312656 
z
" style="fill: #aa8f43; stroke: #ffffff; stroke-width: 2; stroke-linejoin: miter"/>
    </g>
    <g id="text_23">
     <!-- Loss: CE+TMSE -->
     <g style="fill: #262626" transform="translate(1203.029531 110.412656) scale(0.33 -0.33)">
      <defs>
       <path id="DejaVuSans-2b" d="M 2944 4013 
L 2944 2272 
L 4684 2272 
L 4684 1741 
L 2944 1741 
L 2944 0 
L 2419 0 
L 2419 1741 
L 678 1741 
L 678 2272 
L 2419 2272 
L 2419 4013 
L 2944 4013 
z
" transform="scale(0.015625)"/>
       <path id="DejaVuSans-4d" d="M 628 4666 
L 1569 4666 
L 2759 1491 
L 3956 4666 
L 4897 4666 
L 4897 0 
L 4281 0 
L 4281 4097 
L 3078 897 
L 2444 897 
L 1241 4097 
L 1241 0 
L 628 0 
L 628 4666 
z
" transform="scale(0.015625)"/>
       <path id="DejaVuSans-53" d="M 3425 4513 
L 3425 3897 
Q 3066 4069 2747 4153 
Q 2428 4238 2131 4238 
Q 1616 4238 1336 4038 
Q 1056 3838 1056 3469 
Q 1056 3159 1242 3001 
Q 1428 2844 1947 2747 
L 2328 2669 
Q 3034 2534 3370 2195 
Q 3706 1856 3706 1288 
Q 3706 609 3251 259 
Q 2797 -91 1919 -91 
Q 1588 -91 1214 -16 
Q 841 59 441 206 
L 441 856 
Q 825 641 1194 531 
Q 1563 422 1919 422 
Q 2459 422 2753 634 
Q 3047 847 3047 1241 
Q 3047 1584 2836 1778 
Q 2625 1972 2144 2069 
L 1759 2144 
Q 1053 2284 737 2584 
Q 422 2884 422 3419 
Q 422 4038 858 4394 
Q 1294 4750 2059 4750 
Q 2388 4750 2728 4690 
Q 3069 4631 3425 4513 
z
" transform="scale(0.015625)"/>
      </defs>
      <use xlink:href="#DejaVuSans-4c"/>
      <use xlink:href="#DejaVuSans-6f" x="53.962891"/>
      <use xlink:href="#DejaVuSans-73" x="115.144531"/>
      <use xlink:href="#DejaVuSans-73" x="167.244141"/>
      <use xlink:href="#DejaVuSans-3a" x="219.34375"/>
      <use xlink:href="#DejaVuSans-20" x="253.035156"/>
      <use xlink:href="#DejaVuSans-43" x="284.822266"/>
      <use xlink:href="#DejaVuSans-45" x="354.646484"/>
      <use xlink:href="#DejaVuSans-2b" x="417.830078"/>
      <use xlink:href="#DejaVuSans-54" x="501.619141"/>
      <use xlink:href="#DejaVuSans-4d" x="562.703125"/>
      <use xlink:href="#DejaVuSans-53" x="648.982422"/>
      <use xlink:href="#DejaVuSans-45" x="712.458984"/>
     </g>
    </g>
    <g id="patch_22">
     <path d="M 1110.629531 158.850469 
L 1176.629531 158.850469 
L 1176.629531 135.750469 
L 1110.629531 135.750469 
z
" style="fill: #58a141; stroke: #ffffff; stroke-width: 2; stroke-linejoin: miter"/>
    </g>
    <g id="text_24">
     <!-- Loss: CE+gsTMSE -->
     <g style="fill: #262626" transform="translate(1203.029531 158.850469) scale(0.33 -0.33)">
      <defs>
       <path id="DejaVuSans-67" d="M 2906 1791 
Q 2906 2416 2648 2759 
Q 2391 3103 1925 3103 
Q 1463 3103 1205 2759 
Q 947 2416 947 1791 
Q 947 1169 1205 825 
Q 1463 481 1925 481 
Q 2391 481 2648 825 
Q 2906 1169 2906 1791 
z
M 3481 434 
Q 3481 -459 3084 -895 
Q 2688 -1331 1869 -1331 
Q 1566 -1331 1297 -1286 
Q 1028 -1241 775 -1147 
L 775 -588 
Q 1028 -725 1275 -790 
Q 1522 -856 1778 -856 
Q 2344 -856 2625 -561 
Q 2906 -266 2906 331 
L 2906 616 
Q 2728 306 2450 153 
Q 2172 0 1784 0 
Q 1141 0 747 490 
Q 353 981 353 1791 
Q 353 2603 747 3093 
Q 1141 3584 1784 3584 
Q 2172 3584 2450 3431 
Q 2728 3278 2906 2969 
L 2906 3500 
L 3481 3500 
L 3481 434 
z
" transform="scale(0.015625)"/>
      </defs>
      <use xlink:href="#DejaVuSans-4c"/>
      <use xlink:href="#DejaVuSans-6f" x="53.962891"/>
      <use xlink:href="#DejaVuSans-73" x="115.144531"/>
      <use xlink:href="#DejaVuSans-73" x="167.244141"/>
      <use xlink:href="#DejaVuSans-3a" x="219.34375"/>
      <use xlink:href="#DejaVuSans-20" x="253.035156"/>
      <use xlink:href="#DejaVuSans-43" x="284.822266"/>
      <use xlink:href="#DejaVuSans-45" x="354.646484"/>
      <use xlink:href="#DejaVuSans-2b" x="417.830078"/>
      <use xlink:href="#DejaVuSans-67" x="501.619141"/>
      <use xlink:href="#DejaVuSans-73" x="565.095703"/>
      <use xlink:href="#DejaVuSans-54" x="617.195312"/>
      <use xlink:href="#DejaVuSans-4d" x="678.279297"/>
      <use xlink:href="#DejaVuSans-53" x="764.558594"/>
      <use xlink:href="#DejaVuSans-45" x="828.035156"/>
     </g>
    </g>
    <g id="patch_23">
     <path d="M 1110.629531 207.288281 
L 1176.629531 207.288281 
L 1176.629531 184.188281 
L 1110.629531 184.188281 
z
" style="fill: #459e97; stroke: #ffffff; stroke-width: 2; stroke-linejoin: miter"/>
    </g>
    <g id="text_25">
     <!-- Loss: CE with clean-ups -->
     <g style="fill: #262626" transform="translate(1203.029531 207.288281) scale(0.33 -0.33)">
      <defs>
       <path id="DejaVuSans-69" d="M 603 3500 
L 1178 3500 
L 1178 0 
L 603 0 
L 603 3500 
z
M 603 4863 
L 1178 4863 
L 1178 4134 
L 603 4134 
L 603 4863 
z
" transform="scale(0.015625)"/>
       <path id="DejaVuSans-6c" d="M 603 4863 
L 1178 4863 
L 1178 0 
L 603 0 
L 603 4863 
z
" transform="scale(0.015625)"/>
       <path id="DejaVuSans-2d" d="M 313 2009 
L 1997 2009 
L 1997 1497 
L 313 1497 
L 313 2009 
z
" transform="scale(0.015625)"/>
       <path id="DejaVuSans-75" d="M 544 1381 
L 544 3500 
L 1119 3500 
L 1119 1403 
Q 1119 906 1312 657 
Q 1506 409 1894 409 
Q 2359 409 2629 706 
Q 2900 1003 2900 1516 
L 2900 3500 
L 3475 3500 
L 3475 0 
L 2900 0 
L 2900 538 
Q 2691 219 2414 64 
Q 2138 -91 1772 -91 
Q 1169 -91 856 284 
Q 544 659 544 1381 
z
M 1991 3584 
L 1991 3584 
z
" transform="scale(0.015625)"/>
       <path id="DejaVuSans-70" d="M 1159 525 
L 1159 -1331 
L 581 -1331 
L 581 3500 
L 1159 3500 
L 1159 2969 
Q 1341 3281 1617 3432 
Q 1894 3584 2278 3584 
Q 2916 3584 3314 3078 
Q 3713 2572 3713 1747 
Q 3713 922 3314 415 
Q 2916 -91 2278 -91 
Q 1894 -91 1617 61 
Q 1341 213 1159 525 
z
M 3116 1747 
Q 3116 2381 2855 2742 
Q 2594 3103 2138 3103 
Q 1681 3103 1420 2742 
Q 1159 2381 1159 1747 
Q 1159 1113 1420 752 
Q 1681 391 2138 391 
Q 2594 391 2855 752 
Q 3116 1113 3116 1747 
z
" transform="scale(0.015625)"/>
      </defs>
      <use xlink:href="#DejaVuSans-4c"/>
      <use xlink:href="#DejaVuSans-6f" x="53.962891"/>
      <use xlink:href="#DejaVuSans-73" x="115.144531"/>
      <use xlink:href="#DejaVuSans-73" x="167.244141"/>
      <use xlink:href="#DejaVuSans-3a" x="219.34375"/>
      <use xlink:href="#DejaVuSans-20" x="253.035156"/>
      <use xlink:href="#DejaVuSans-43" x="284.822266"/>
      <use xlink:href="#DejaVuSans-45" x="354.646484"/>
      <use xlink:href="#DejaVuSans-20" x="417.830078"/>
      <use xlink:href="#DejaVuSans-77" x="449.617188"/>
      <use xlink:href="#DejaVuSans-69" x="531.404297"/>
      <use xlink:href="#DejaVuSans-74" x="559.1875"/>
      <use xlink:href="#DejaVuSans-68" x="598.396484"/>
      <use xlink:href="#DejaVuSans-20" x="661.775391"/>
      <use xlink:href="#DejaVuSans-63" x="693.5625"/>
      <use xlink:href="#DejaVuSans-6c" x="748.542969"/>
      <use xlink:href="#DejaVuSans-65" x="776.326172"/>
      <use xlink:href="#DejaVuSans-61" x="837.849609"/>
      <use xlink:href="#DejaVuSans-6e" x="899.128906"/>
      <use xlink:href="#DejaVuSans-2d" x="962.507812"/>
      <use xlink:href="#DejaVuSans-75" x="998.591797"/>
      <use xlink:href="#DejaVuSans-70" x="1061.970703"/>
      <use xlink:href="#DejaVuSans-73" x="1125.447266"/>
     </g>
    </g>
    <g id="patch_24">
     <path d="M 1110.629531 255.726094 
L 1176.629531 255.726094 
L 1176.629531 232.626094 
L 1110.629531 232.626094 
z
" style="fill: #529fd6; stroke: #ffffff; stroke-width: 2; stroke-linejoin: miter"/>
    </g>
    <g id="text_26">
     <!-- Loss: CE+TMSE with clean-ups -->
     <g style="fill: #262626" transform="translate(1203.029531 255.726094) scale(0.33 -0.33)">
      <use xlink:href="#DejaVuSans-4c"/>
      <use xlink:href="#DejaVuSans-6f" x="53.962891"/>
      <use xlink:href="#DejaVuSans-73" x="115.144531"/>
      <use xlink:href="#DejaVuSans-73" x="167.244141"/>
      <use xlink:href="#DejaVuSans-3a" x="219.34375"/>
      <use xlink:href="#DejaVuSans-20" x="253.035156"/>
      <use xlink:href="#DejaVuSans-43" x="284.822266"/>
      <use xlink:href="#DejaVuSans-45" x="354.646484"/>
      <use xlink:href="#DejaVuSans-2b" x="417.830078"/>
      <use xlink:href="#DejaVuSans-54" x="501.619141"/>
      <use xlink:href="#DejaVuSans-4d" x="562.703125"/>
      <use xlink:href="#DejaVuSans-53" x="648.982422"/>
      <use xlink:href="#DejaVuSans-45" x="712.458984"/>
      <use xlink:href="#DejaVuSans-20" x="775.642578"/>
      <use xlink:href="#DejaVuSans-77" x="807.429688"/>
      <use xlink:href="#DejaVuSans-69" x="889.216797"/>
      <use xlink:href="#DejaVuSans-74" x="917"/>
      <use xlink:href="#DejaVuSans-68" x="956.208984"/>
      <use xlink:href="#DejaVuSans-20" x="1019.587891"/>
      <use xlink:href="#DejaVuSans-63" x="1051.375"/>
      <use xlink:href="#DejaVuSans-6c" x="1106.355469"/>
      <use xlink:href="#DejaVuSans-65" x="1134.138672"/>
      <use xlink:href="#DejaVuSans-61" x="1195.662109"/>
      <use xlink:href="#DejaVuSans-6e" x="1256.941406"/>
      <use xlink:href="#DejaVuSans-2d" x="1320.320312"/>
      <use xlink:href="#DejaVuSans-75" x="1356.404297"/>
      <use xlink:href="#DejaVuSans-70" x="1419.783203"/>
      <use xlink:href="#DejaVuSans-73" x="1483.259766"/>
     </g>
    </g>
    <g id="patch_25">
     <path d="M 1110.629531 304.163906 
L 1176.629531 304.163906 
L 1176.629531 281.063906 
L 1110.629531 281.063906 
z
" style="fill: #d978e2; stroke: #ffffff; stroke-width: 2; stroke-linejoin: miter"/>
    </g>
    <g id="text_27">
     <!-- Loss: CE+gsTMSE with clean-ups -->
     <g style="fill: #262626" transform="translate(1203.029531 304.163906) scale(0.33 -0.33)">
      <use xlink:href="#DejaVuSans-4c"/>
      <use xlink:href="#DejaVuSans-6f" x="53.962891"/>
      <use xlink:href="#DejaVuSans-73" x="115.144531"/>
      <use xlink:href="#DejaVuSans-73" x="167.244141"/>
      <use xlink:href="#DejaVuSans-3a" x="219.34375"/>
      <use xlink:href="#DejaVuSans-20" x="253.035156"/>
      <use xlink:href="#DejaVuSans-43" x="284.822266"/>
      <use xlink:href="#DejaVuSans-45" x="354.646484"/>
      <use xlink:href="#DejaVuSans-2b" x="417.830078"/>
      <use xlink:href="#DejaVuSans-67" x="501.619141"/>
      <use xlink:href="#DejaVuSans-73" x="565.095703"/>
      <use xlink:href="#DejaVuSans-54" x="617.195312"/>
      <use xlink:href="#DejaVuSans-4d" x="678.279297"/>
      <use xlink:href="#DejaVuSans-53" x="764.558594"/>
      <use xlink:href="#DejaVuSans-45" x="828.035156"/>
      <use xlink:href="#DejaVuSans-20" x="891.21875"/>
      <use xlink:href="#DejaVuSans-77" x="923.005859"/>
      <use xlink:href="#DejaVuSans-69" x="1004.792969"/>
      <use xlink:href="#DejaVuSans-74" x="1032.576172"/>
      <use xlink:href="#DejaVuSans-68" x="1071.785156"/>
      <use xlink:href="#DejaVuSans-20" x="1135.164062"/>
      <use xlink:href="#DejaVuSans-63" x="1166.951172"/>
      <use xlink:href="#DejaVuSans-6c" x="1221.931641"/>
      <use xlink:href="#DejaVuSans-65" x="1249.714844"/>
      <use xlink:href="#DejaVuSans-61" x="1311.238281"/>
      <use xlink:href="#DejaVuSans-6e" x="1372.517578"/>
      <use xlink:href="#DejaVuSans-2d" x="1435.896484"/>
      <use xlink:href="#DejaVuSans-75" x="1471.980469"/>
      <use xlink:href="#DejaVuSans-70" x="1535.359375"/>
      <use xlink:href="#DejaVuSans-73" x="1598.835938"/>
     </g>
    </g>
   </g>
  </g>
 </g>
 <defs>
  <clipPath id="paeebccc302">
   <rect x="103.53375" y="7.2" width="1674" height="665.28"/>
  </clipPath>
 </defs>
</svg>
